<svg xmlns="http://www.w3.org/2000/svg" xmlns:xlink="http://www.w3.org/1999/xlink" width="400" height="400" viewBox="0 0 120 120" fill="none">
<circle cx="46.484921875" cy="27.04498046875" r="6.065"   fill="#8352A1" >
</circle>
<circle cx="73.675107421875" cy="93.1349462890625" r="6.065"   fill="#3E99D3" >
</circle>
<path   fill-rule="evenodd"  fill="#E53C54"  d="M78.8704 23.4527L78.8704 23.4527M41.8598 52.0474L41.8598 52.0474M42.8729 44.15C40.4124 46.0511 39.9588 49.5868 41.8598 52.0474C43.7609 54.5079 47.2966 54.9615 49.7572 53.0604L77.8573 31.35C80.3178 29.449 80.7714 25.9132 78.8704 23.4527C76.9693 20.9922 73.4336 20.5386 70.9731 22.4396L42.8729 44.15">
</path>
<path   fill-rule="evenodd"  fill="#F49352"  d="M78.8704 45.6226L78.8704 45.6226M41.8598 74.2173L41.8598 74.2173M42.8729 66.32C40.4124 68.221 39.9588 71.7567 41.8598 74.2173C43.7609 76.6778 47.2966 77.1314 49.7572 75.2303L77.8573 53.5199C80.3178 51.6189 80.7714 48.0831 78.8704 45.6226C76.9693 43.1621 73.4336 42.7085 70.9731 44.6095L42.8729 66.32">
</path>
<path   fill-rule="evenodd"  fill="#3EBB90"  d="M78.4502 68.6326L78.4502 68.6326M41.4397 97.2273L41.4397 97.2273M42.4527 89.33C39.9922 91.231 39.5386 94.7668 41.4397 97.2273C43.3407 99.6878 46.8765 100.141 49.337 98.2404L77.4371 76.5299C79.8977 74.6289 80.3512 71.0932 78.4502 68.6326C76.5492 66.1721 73.0134 65.7185 70.5529 67.6196L42.4527 89.33">
</path>
</svg>
